<svg width="52" height="52" viewBox="0 0 52 52" fill="none" xmlns="http://www.w3.org/2000/svg">
<path d="M8.5 4.5H25.2252C31.0008 4.5 35.8138 6.5681 39.6642 10.7043C43.5547 14.7995 45.5 19.8981 45.5 26C45.5 32.1019 43.5547 37.2005 39.6642 41.2957C35.8138 45.4319 31.0008 47.5 25.2252 47.5H8.5V4.5ZM16.8024 39.3914H25.2252C28.8751 39.3914 31.8431 38.1629 34.1293 35.7057C36.4154 33.1667 37.5585 29.9314 37.5585 26C37.5585 22.0276 36.4154 18.8129 34.1293 16.3557C31.8431 13.8576 28.8751 12.6086 25.2252 12.6086H16.8024V39.3914Z" fill="black"/>
</svg>
